<svg width="34" height="34" viewBox="0 0 34 34" fill="none" xmlns="http://www.w3.org/2000/svg">
<path fill-rule="evenodd" clip-rule="evenodd" d="M32.1027 30.2779C32.2233 30.3963 32.3177 30.5389 32.3813 30.6946C32.4471 30.8504 32.48 31.0171 32.48 31.186C32.48 31.3549 32.4471 31.5216 32.3813 31.6774C32.3177 31.8331 32.2233 31.9735 32.1027 32.0941C31.8 32.3968 31.3679 32.5285 30.9467 32.4473C30.5277 32.3639 30.1768 32.0766 30.0122 31.6817C29.8477 31.2869 29.8894 30.835 30.1263 30.4797C30.3632 30.1221 30.7646 29.9072 31.1924 29.9072C31.2772 29.9057 31.3613 29.913 31.4446 29.9291C31.5265 29.9437 31.607 29.9671 31.6859 29.9993C31.7649 30.0315 31.8395 30.0717 31.9097 30.1199C31.9799 30.1667 32.0442 30.2201 32.1027 30.2801V30.2779ZM31.8088 30.2669C31.7488 30.226 31.6852 30.1909 31.6179 30.1616C31.5507 30.1338 31.4812 30.1134 31.4095 30.1002C31.3379 30.087 31.2655 30.0812 31.1924 30.0826C31.0476 30.0826 30.9028 30.1112 30.769 30.166C30.6352 30.223 30.5146 30.3042 30.4115 30.4073C30.3084 30.5104 30.2272 30.6332 30.1724 30.767C30.1175 30.9008 30.089 31.0456 30.0912 31.1904C30.0897 31.262 30.0956 31.3337 30.1088 31.4054C30.1234 31.477 30.1439 31.5465 30.1702 31.6137C30.198 31.681 30.2323 31.7446 30.2733 31.8046C30.3128 31.8645 30.3581 31.9201 30.4093 31.9713C30.5628 32.127 30.7602 32.2323 30.9752 32.2762C31.1902 32.3201 31.4117 32.2981 31.6135 32.2126C31.8153 32.1292 31.9886 31.9866 32.1093 31.8046C32.2299 31.6225 32.2935 31.4097 32.2935 31.1904C32.295 31.1173 32.2891 31.0449 32.276 30.9732C32.2628 30.9016 32.2423 30.8321 32.2146 30.7648C32.1882 30.6976 32.1546 30.634 32.1137 30.574C32.0727 30.514 32.0259 30.4585 31.9733 30.4073C31.9236 30.3547 31.8687 30.3079 31.8088 30.2669ZM30.6747 30.4753H31.1682C31.3437 30.4753 31.471 30.4928 31.5521 30.5279C31.7013 30.5872 31.7693 30.7078 31.7693 30.8833C31.7693 31.0061 31.7254 31.1005 31.6333 31.1619C31.6172 31.1707 31.6011 31.1787 31.585 31.186C31.5689 31.1933 31.5521 31.1999 31.5346 31.2057C31.517 31.2116 31.4995 31.2167 31.4819 31.2211C31.4644 31.2255 31.4468 31.2284 31.4293 31.2299C31.539 31.2518 31.6201 31.2957 31.6706 31.3703C31.6837 31.3863 31.6947 31.4032 31.7035 31.4207C31.7137 31.4383 31.7225 31.4558 31.7298 31.4734C31.7356 31.4924 31.7408 31.5121 31.7451 31.5326C31.7495 31.5516 31.7517 31.5713 31.7517 31.5918V31.798C31.7517 31.8039 31.7517 31.8104 31.7517 31.8177C31.7532 31.8236 31.7546 31.8294 31.7561 31.8353C31.7561 31.8411 31.7576 31.847 31.7605 31.8528C31.762 31.8587 31.7642 31.8645 31.7671 31.8704L31.7737 31.8836H31.5411C31.539 31.8836 31.5346 31.8792 31.5346 31.8726C31.5346 31.8711 31.5346 31.8697 31.5346 31.8682C31.5346 31.8667 31.5346 31.8653 31.5346 31.8638C31.5331 31.8623 31.5324 31.8616 31.5324 31.8616C31.5324 31.8602 31.5324 31.8587 31.5324 31.8572L31.528 31.8112V31.6993C31.528 31.537 31.4841 31.4317 31.3964 31.3768C31.3437 31.3461 31.2494 31.333 31.12 31.333H30.9226V31.8836H30.6747V30.4753ZM31.3832 31.1246C31.4051 31.1173 31.4256 31.1063 31.4446 31.0917C31.4636 31.0771 31.4797 31.0595 31.4929 31.039C31.506 31.0186 31.5156 30.9966 31.5214 30.9732C31.5273 30.9513 31.5294 30.9279 31.528 30.903C31.528 30.8043 31.4907 30.7341 31.4337 30.699C31.3744 30.6661 31.2735 30.6486 31.1375 30.6486H30.9226V31.1597H31.1441C31.1646 31.1597 31.1843 31.1597 31.2033 31.1597C31.2238 31.1582 31.2443 31.1568 31.2648 31.1553C31.2852 31.1524 31.305 31.1487 31.324 31.1443C31.343 31.1399 31.3627 31.1348 31.3832 31.129V31.1246Z" fill="#E4002B"/>
<path d="M29.3077 27.2795C28.891 27.5866 28.4544 27.8652 27.9982 28.113C27.5441 28.3609 27.0725 28.5781 26.5899 28.7623C26.1051 28.9466 25.6094 29.0979 25.1049 29.2142C24.6004 29.3305 24.0871 29.4138 23.5716 29.4621C20.9942 29.6529 17.5481 29.0409 16.8155 28.5912C16.7014 28.3324 16.5881 28.0728 16.4755 27.8125C16.3629 27.5522 16.2503 27.2926 16.1377 27.0338C16.0251 26.7735 15.9132 26.5132 15.8021 26.2529C15.6909 25.9911 15.5805 25.7301 15.4708 25.4698C15.3568 25.2351 15.2866 24.9938 15.6068 24.7152C15.7311 24.5953 15.8554 24.4761 15.9797 24.3577C16.104 24.2378 16.2283 24.1179 16.3526 23.9979C16.4769 23.878 16.6012 23.7581 16.7255 23.6382C16.8498 23.5183 16.9741 23.3976 17.0984 23.2763C17.3222 23.0591 17.5701 22.8551 17.7587 23.1688C17.9225 23.4218 18.0877 23.6748 18.2544 23.9277C18.4197 24.1793 18.5857 24.4315 18.7524 24.6845C18.9176 24.936 19.0843 25.1876 19.2525 25.4391C19.4192 25.6906 19.5867 25.9422 19.7548 26.1937C20.4919 27.2817 21.6171 28.2775 24.0717 28.113C26.1424 27.9244 27.7108 26.3648 27.8797 24.6428C28.0662 21.4622 24.8439 19.2028 16.4733 18.479C16.8389 17.372 17.2052 16.2649 17.5722 15.1579C17.9393 14.0509 18.3071 12.9446 18.6756 11.8391C19.0441 10.7321 19.4134 9.62581 19.7833 8.52026C20.1533 7.41471 20.524 6.30916 20.8955 5.20361C21.3634 5.22409 21.8307 5.24895 22.2971 5.27819C22.7636 5.3089 23.2301 5.34473 23.6966 5.38568C24.1617 5.42516 24.6267 5.46976 25.0917 5.51948C25.5568 5.5692 26.0211 5.62331 26.4846 5.68181C27.7854 5.8529 28.9941 6.15123 30.2049 6.29381C30.4959 6.64916 30.7701 7.01622 31.0275 7.39497C30.8213 8.25923 30.7116 9.14981 30.5076 10.0623C27.9609 9.7311 24.9667 9.48981 21.5996 9.37136C21.332 10.2246 21.0753 11.0604 20.7836 11.9729C26.4101 12.3195 29.1476 13.8023 30.7708 15.5484C32.348 17.3164 32.6836 19.2708 32.5915 21.0849C32.3919 24.033 31.0933 25.8954 29.3077 27.2795Z" fill="white"/>
<path d="M4.58249 26.6016C4.64829 26.2791 4.59345 25.7768 4.53642 25.2701C4.19642 21.9315 4.07578 18.3297 4.2052 14.7191C3.34313 14.7564 2.56661 14.7981 1.8252 14.842C1.83251 14.6782 1.84055 14.5144 1.84932 14.3506C1.8581 14.1883 1.86687 14.0253 1.87565 13.8615C1.88588 13.6991 1.89685 13.5361 1.90855 13.3723C1.92025 13.21 1.93268 13.0469 1.94584 12.8831C2.67629 12.8129 3.455 12.7471 4.30829 12.6791C4.31707 12.5373 4.32584 12.3962 4.33461 12.2558C4.34485 12.1139 4.35509 11.9721 4.36532 11.8302C4.37556 11.6884 4.38653 11.5473 4.39823 11.4069C4.40993 11.265 4.42163 11.1239 4.43332 10.9835C4.8172 7.54185 8.44313 5.43824 11.4615 4.62443C12.8017 4.2954 13.6199 4.1923 14.2626 4.1594C14.4973 4.15282 14.7452 4.14624 14.9953 4.14624C15.6226 4.14624 16.2587 4.20327 16.6602 4.47527C16.8269 4.59957 16.9929 4.72461 17.1581 4.85037C17.3248 4.97467 17.4901 5.10043 17.6538 5.22766C17.8191 5.35342 17.9836 5.47992 18.1474 5.60714C18.3112 5.73437 18.475 5.86233 18.6387 5.99101C18.7111 6.08314 18.7813 6.22572 18.6124 6.47798C18.2987 6.8443 17.996 7.19527 17.6758 7.57695C17.4937 7.7963 17.1866 7.73488 16.9278 7.66688C16.3925 7.39489 15.8705 7.14043 15.3484 6.88598C14.392 6.46482 13.4093 6.02611 12.3125 6.06998C11.6282 6.12482 10.9657 6.82456 10.8977 7.78314C10.8012 9.24185 10.7376 10.7335 10.6827 12.3567C12.5867 12.3019 14.4842 12.269 16.4825 12.2602L16.4803 13.5982C15.8266 13.89 15.2124 14.1861 14.5587 14.4822C13.2097 14.4976 11.9243 14.5086 10.6323 14.5327C10.6162 15.4686 10.6082 16.4053 10.6082 17.3426C10.6067 18.2785 10.6133 19.2152 10.6279 20.1526C10.6425 21.0885 10.6637 22.0244 10.6915 22.9603C10.7208 23.8977 10.7573 24.8343 10.8012 25.7702C10.8319 26.3033 10.8604 26.8473 11.0162 27.2114C11.2004 27.6655 12.2599 28.0208 14.5697 28.1502L14.6026 29.3216C13.7427 29.3011 12.8836 29.2646 12.0252 29.2119C11.1653 29.1607 10.3076 29.0935 9.45216 29.0101C8.59522 28.9268 7.74046 28.8288 6.88791 28.7162C6.03388 28.6021 5.18279 28.4734 4.33461 28.3301C3.97195 27.9265 3.62975 27.5061 3.30803 27.0688C4.02971 27.0754 4.52984 26.9109 4.58249 26.6016Z" fill="white"/>
<path d="M31.0322 7.39267C31.5126 8.09461 31.9403 8.82945 32.311 9.59719C32.6817 10.3627 32.9932 11.1546 33.2455 11.9684C33.4955 12.78 33.6864 13.6114 33.8136 14.4515C33.9386 15.2938 34.0022 16.1427 34 16.9938C33.9979 20.4333 32.9537 23.7938 31.0015 26.6279C29.0492 29.4598 26.2853 31.6358 23.0718 32.8642C19.8582 34.0925 16.3464 34.3185 13.0034 33.5091C9.65824 32.6996 6.63773 30.8944 4.34108 28.3323C5.18925 28.4756 6.04035 28.6043 6.89437 28.7183C7.74693 28.831 8.60168 28.9282 9.45863 29.0101C10.3141 29.092 11.1718 29.1593 12.0317 29.2119C12.8901 29.2631 13.7492 29.2989 14.6091 29.3194L14.5762 28.1502C12.2642 28.0164 11.2025 27.6654 11.0204 27.207C10.8669 26.8473 10.8384 26.3033 10.8055 25.7702C10.7616 24.8343 10.725 23.8977 10.6958 22.9603C10.6665 22.0244 10.6446 21.0885 10.63 20.1525C10.6168 19.2152 10.6102 18.2785 10.6102 17.3426C10.6117 16.4052 10.6197 15.4686 10.6344 14.5327C11.9264 14.5085 13.2118 14.4976 14.563 14.4822C15.2189 14.1861 15.8331 13.89 16.4868 13.5982L16.489 12.258C14.4884 12.2689 12.591 12.3018 10.687 12.3567C10.7397 10.7334 10.8055 9.24183 10.8998 7.78312C10.9678 6.82454 11.6324 6.1248 12.3146 6.07216C13.4136 6.02609 14.3985 6.4648 15.3505 6.88816C15.877 7.14041 16.3946 7.39487 16.932 7.67125C17.1909 7.73925 17.4958 7.79629 17.68 7.57474L18.6123 6.47796C18.7812 6.23009 18.7066 6.08312 18.6386 5.99099C17.952 5.45138 17.3137 4.96441 16.66 4.47525C16.2564 4.20325 15.6225 4.14622 14.9973 4.14622C14.7451 4.14622 14.4972 4.1528 14.2625 4.16158C14.0271 4.17766 13.7916 4.1996 13.5562 4.22738C13.3207 4.25517 13.086 4.28807 12.852 4.32609C12.6181 4.36411 12.3848 4.40798 12.1523 4.4577C11.9213 4.50742 11.6909 4.56299 11.4613 4.62441C8.44302 5.43383 4.81708 7.54183 4.43321 10.9857C4.38276 11.5473 4.34108 12.1022 4.30818 12.6791C3.45489 12.7471 2.67837 12.8107 1.94573 12.8831C1.89089 13.539 1.85579 14.1707 1.82289 14.842C2.02031 14.8303 2.21846 14.8186 2.41734 14.8069C2.61622 14.7966 2.81437 14.7864 3.01179 14.7762C3.21067 14.7659 3.40882 14.7557 3.60624 14.7454C3.80512 14.7367 4.00401 14.7279 4.20289 14.7191C4.07566 18.3297 4.19631 21.9315 4.53631 25.2701C4.59334 25.7768 4.64818 26.2747 4.58237 26.6016C4.52973 26.9109 4.0296 27.0754 3.30792 27.0688C2.77489 26.3449 2.29889 25.5794 1.8865 24.7809C1.47411 23.9825 1.12534 23.1511 0.844566 22.2978C0.563792 21.4423 0.351018 20.5671 0.210631 19.6787C0.0680499 18.7903 -0.0021437 17.8932 4.98534e-05 16.9938C0.0022434 13.482 1.09024 10.0556 3.11928 7.18648C5.14611 4.31732 8.01308 2.1479 11.3231 0.97435C14.6354 -0.197005 18.2284 -0.315457 21.6087 0.636543C24.9911 1.58854 27.9941 3.56493 30.2052 6.2937C28.9944 6.15551 27.7857 5.8528 26.4871 5.68828C24.7257 5.46016 22.8853 5.29783 20.8958 5.2057C19.6455 8.93693 18.0771 13.6289 16.4692 18.4767C24.8442 19.2005 28.0643 21.4577 27.8844 24.6405C27.7177 26.3603 26.1428 27.9243 24.0786 28.1085C21.6175 28.2753 20.4922 27.2794 19.7551 26.1914C19.1037 25.2153 18.4544 24.2325 17.7612 23.1643C17.5748 22.8528 17.3269 23.0568 17.101 23.274C16.9781 23.3939 16.8545 23.5138 16.7302 23.6337C16.6059 23.7536 16.4816 23.8735 16.3573 23.9934C16.233 24.1134 16.1087 24.2333 15.9844 24.3532C15.8587 24.4731 15.7336 24.593 15.6093 24.7129C15.2891 24.9915 15.3615 25.2328 15.4733 25.4675C15.5845 25.7278 15.6956 25.9881 15.8068 26.2484C15.9179 26.5087 16.0298 26.769 16.1424 27.0293C16.2535 27.2896 16.3661 27.5499 16.4802 27.8102C16.5928 28.0691 16.7061 28.3279 16.8202 28.5867C17.555 29.0364 20.9989 29.6484 23.5719 29.4576C25.3202 29.3084 27.5071 28.635 29.3081 27.275C31.0936 25.8953 32.3878 24.0329 32.5918 21.0848C32.6839 19.2729 32.3505 17.3163 30.7733 15.5483C29.1523 13.8022 26.4148 12.3194 20.7883 11.9728C21.0757 11.0603 21.3323 10.2202 21.6043 9.37125C24.9692 9.4897 27.9612 9.73099 30.5123 10.0622C30.7119 9.1497 30.8216 8.25693 31.0322 7.39487V7.39267Z" fill="#E4002B"/>
</svg>
