<svg width="48" height="48" viewBox="0 0 48 48" fill="none" xmlns="http://www.w3.org/2000/svg">
<rect x="0.5" y="0.5" width="47" height="47" rx="11.5" stroke="#DC0000"/>
<path d="M30.5297 29.47C30.8227 29.763 30.8227 30.238 30.5297 30.531C30.3837 30.677 30.1917 30.751 29.9997 30.751C29.8077 30.751 29.6158 30.678 29.4698 30.531L23.9997 25.061L18.5297 30.531C18.3837 30.677 18.1917 30.751 17.9997 30.751C17.8077 30.751 17.6158 30.678 17.4698 30.531C17.1768 30.238 17.1768 29.763 17.4698 29.47L22.9398 24L17.4698 18.5301C17.1768 18.2371 17.1768 17.762 17.4698 17.469C17.7628 17.176 18.2378 17.176 18.5308 17.469L24.0008 22.939L29.4707 17.469C29.7637 17.176 30.2387 17.176 30.5317 17.469C30.8247 17.762 30.8247 18.2371 30.5317 18.5301L25.0617 24L30.5297 29.47Z" fill="#DC0000"/>
</svg>
