<svg width="48" height="48" viewBox="0 0 48 48" fill="none" xmlns="http://www.w3.org/2000/svg">
<path d="M32 32L24 24L16 32" stroke="#056ECA" stroke-width="3" stroke-linecap="round" stroke-linejoin="round"/>
<path d="M24 24V42" stroke="#056ECA" stroke-width="3" stroke-linecap="round" stroke-linejoin="round"/>
<path d="M40.7789 36.78C42.7296 35.7165 44.2706 34.0337 45.1587 31.9972C46.0468 29.9607 46.2314 27.6864 45.6834 25.5333C45.1353 23.3803 43.8859 21.471 42.1323 20.1069C40.3787 18.7427 38.2207 18.0014 35.9989 18H33.4789C32.8736 15.6585 31.7453 13.4846 30.1788 11.642C28.6124 9.79927 26.6486 8.33567 24.4351 7.36118C22.2216 6.3867 19.816 5.92669 17.3992 6.01573C14.9823 6.10478 12.6171 6.74057 10.4813 7.8753C8.34552 9.01003 6.49477 10.6142 5.06819 12.5671C3.64161 14.5201 2.67632 16.771 2.2449 19.1508C1.81348 21.5305 1.92715 23.977 2.57737 26.3065C3.22759 28.6359 4.39743 30.7877 5.99895 32.6" stroke="#056ECA" stroke-width="3" stroke-linecap="round" stroke-linejoin="round"/>
<path d="M32 32L24 24L16 32" stroke="#056ECA" stroke-width="3" stroke-linecap="round" stroke-linejoin="round"/>
</svg>
