<svg width="48" height="48" viewBox="0 0 48 48" fill="none" xmlns="http://www.w3.org/2000/svg">
<rect x="0.5" y="0.5" width="47" height="47" rx="11.5" stroke="#056ECA"/>
<path d="M17.8505 27.73C17.2005 27.73 16.5605 27.98 16.0705 28.47C15.2605 29.28 14.4905 32 14.2805 32.81C14.2105 33.07 14.2805 33.34 14.4705 33.53C14.6105 33.68 14.8105 33.76 15.0105 33.76C15.0705 33.76 15.1305 33.76 15.1905 33.74C15.9705 33.55 18.5805 32.86 19.4005 32.05C20.4205 31.03 20.4905 29.43 19.5505 28.48C19.0905 28.02 18.4905 27.76 17.8705 27.74L17.8505 27.73ZM18.3305 30.97C18.0805 31.22 17.1305 31.59 16.1105 31.91C16.4705 30.81 16.8805 29.79 17.1405 29.52C17.3405 29.32 17.5705 29.21 17.8205 29.22C18.0605 29.22 18.2905 29.33 18.4805 29.52C18.8405 29.88 18.7705 30.53 18.3305 30.96V30.97ZM27.2605 17.78C25.6105 17.78 24.2605 19.12 24.2605 20.77C24.2605 22.42 25.6105 23.76 27.2605 23.76C28.9105 23.76 30.2605 22.42 30.2605 20.77C30.2605 19.12 28.9105 17.78 27.2605 17.78ZM27.2605 22.27C26.4305 22.27 25.7605 21.6 25.7605 20.78C25.7605 19.96 26.4305 19.29 27.2605 19.29C28.0905 19.29 28.7605 19.96 28.7605 20.78C28.7605 21.6 28.0905 22.27 27.2605 22.27ZM33.4405 15.07C33.3705 14.8 33.1605 14.59 32.8905 14.53C32.6505 14.47 26.8705 13.12 23.1005 16.89C22.5905 17.4 22.1605 17.9 21.7605 18.38L19.6705 18.83C17.6905 19.15 16.0105 20.5 15.2705 22.35L14.3105 24.74C14.2105 25 14.2505 25.29 14.4305 25.5C14.5705 25.67 14.7805 25.76 15.0005 25.76C15.0505 25.76 15.1105 25.76 15.1605 25.74L18.5305 24.99C18.4805 25.16 18.4305 25.33 18.3705 25.51C18.2405 25.96 18.3505 26.44 18.6805 26.76L21.2005 29.28C21.4405 29.52 21.7605 29.65 22.0905 29.65C22.2005 29.65 22.3105 29.64 22.4105 29.61C22.6205 29.55 22.8205 29.5 23.0205 29.44L22.2605 32.83C22.2005 33.1 22.2905 33.38 22.5105 33.56C22.6505 33.68 22.8205 33.74 23.0005 33.74C23.0905 33.74 23.1905 33.72 23.2805 33.69L25.6705 32.73C27.5305 31.99 28.8905 30.31 29.2005 28.38L29.6405 26.36C30.1405 25.95 30.6505 25.51 31.1905 24.97C34.9605 21.19 33.5005 15.31 33.4405 15.06V15.07ZM16.2405 23.98L16.6705 22.91C17.2105 21.54 18.4605 20.55 19.9505 20.31L20.5005 20.19C20.2505 20.61 20.0405 21.03 19.8405 21.47C19.8305 21.49 19.8205 21.51 19.8105 21.53C19.5405 22.11 19.3005 22.72 19.0805 23.35L16.2405 23.98ZM22.1705 28.13L19.8605 25.82C20.1605 24.81 20.4505 23.93 20.7705 23.11L24.9605 27.29C24.1405 27.59 23.2405 27.85 22.1805 28.14L22.1705 28.13ZM27.7305 28.11C27.5005 29.56 26.5005 30.8 25.1205 31.34L24.0505 31.77L24.6805 28.96C25.3505 28.75 25.9705 28.51 26.5605 28.26C26.5705 28.26 26.5905 28.25 26.6005 28.24C27.0305 28.05 27.4405 27.84 27.8405 27.61L27.7305 28.11ZM26.4505 26.66L21.4105 21.63C22.0405 20.4 22.8605 19.25 24.1605 17.95C26.7705 15.34 30.7405 15.69 32.0805 15.9C32.3205 17.25 32.7505 21.3 30.1305 23.92C28.8305 25.22 27.7105 26.04 26.4505 26.66Z" fill="#056ECA"/>
</svg>
