<svg width="1412" height="435" viewBox="0 0 1412 435" fill="none" xmlns="http://www.w3.org/2000/svg">
<mask id="mask0_174_2748" style="mask-type:alpha" maskUnits="userSpaceOnUse" x="0" y="0" width="1412" height="435">
<rect width="1412" height="435" rx="41.8815" fill="#EAF3EF"/>
</mask>
<g mask="url(#mask0_174_2748)">
<path opacity="0.1" d="M706.5 -0.818848C926.652 -0.818848 1101.09 143.827 1101.09 317.775C1101.09 491.723 926.652 636.369 706.5 636.369C486.348 636.369 311.906 491.723 311.906 317.775C311.906 143.827 486.348 -0.818848 706.5 -0.818848Z" stroke="#8AA99C" stroke-width="21.8133"/>
<path opacity="0.1" d="M706 -94.147C986.526 -94.147 1207.42 87.6815 1207.42 304.775C1207.42 521.868 986.526 703.697 706 703.697C425.474 703.697 204.578 521.868 204.578 304.775C204.578 87.6815 425.474 -94.147 706 -94.147Z" stroke="#8AA99C" stroke-width="33.1562"/>
</g>
</svg>
