<svg width="24" height="24" viewBox="0 0 24 24" fill="none" xmlns="http://www.w3.org/2000/svg">
<path d="M5.625 11.9997C5.625 10.8106 5.95261 9.69672 6.52177 8.74295V4.69727H2.47608C0.870375 6.78264 0 9.32416 0 11.9997C0 14.6752 0.870375 17.2167 2.47608 19.3021H6.52177V15.2564C5.95261 14.3027 5.625 13.1888 5.625 11.9997Z" fill="#FBBD00"/>
<path d="M12 18.375L9.1875 21.1875L12 24C14.6756 24 17.217 23.1296 19.3024 21.5239V17.4825H15.261C14.2989 18.0538 13.1804 18.375 12 18.375Z" fill="#0F9D58"/>
<path d="M6.52225 15.2568L2.47656 19.3025C2.79694 19.7188 3.14388 20.1139 3.51522 20.4854C5.78172 22.7519 8.79517 24.0001 12.0005 24.0001V18.3751C9.67436 18.3751 7.63562 17.1226 6.52225 15.2568Z" fill="#31AA52"/>
<path d="M24 12.0004C24.0001 11.2714 23.9343 10.5438 23.8035 9.82652L23.698 9.25H12V14.875H17.6931C17.1483 15.9589 16.3043 16.864 15.261 17.483L19.3024 21.5244C19.7186 21.204 20.1138 20.8571 20.4853 20.4857C22.7518 18.2192 24 15.2057 24 12.0004Z" fill="#3C79E6"/>
<path d="M16.5078 7.49217L17.005 7.98933L20.9825 4.01189L20.4853 3.51473C18.2188 1.24823 15.2054 0 12 0L9.1875 2.8125L12 5.625C13.7028 5.625 15.3037 6.28809 16.5078 7.49217Z" fill="#CF2D48"/>
<path d="M12.0005 5.625V0C8.79522 0 5.78177 1.24823 3.51522 3.51469C3.14386 3.88618 2.79691 4.2813 2.47656 4.69758L6.52225 8.74327C7.63567 6.8775 9.67441 5.625 12.0005 5.625Z" fill="#EB4132"/>
</svg>
