<svg width="48" height="48" viewBox="0 0 48 48" fill="none" xmlns="http://www.w3.org/2000/svg">
<rect x="0.5" y="0.5" width="47" height="47" rx="11.5" stroke="#056ECA"/>
<path d="M32.53 20.47L26.53 14.47C26.389 14.329 26.199 14.25 26 14.25H20C17.582 14.25 16.25 15.582 16.25 18V30C16.25 32.418 17.582 33.75 20 33.75H29C31.418 33.75 32.75 32.418 32.75 30V21C32.75 20.801 32.671 20.61 32.53 20.47ZM26.75 16.811L30.189 20.25H29C27.423 20.25 26.75 19.577 26.75 18V16.811ZM29 32.25H20C18.423 32.25 17.75 31.577 17.75 30V18C17.75 16.423 18.423 15.75 20 15.75H25.25V18C25.25 20.418 26.582 21.75 29 21.75H31.25V30C31.25 31.577 30.577 32.25 29 32.25ZM28.75 24C28.75 24.414 28.414 24.75 28 24.75H21C20.586 24.75 20.25 24.414 20.25 24C20.25 23.586 20.586 23.25 21 23.25H28C28.414 23.25 28.75 23.586 28.75 24ZM25.75 28C25.75 28.414 25.414 28.75 25 28.75H21C20.586 28.75 20.25 28.414 20.25 28C20.25 27.586 20.586 27.25 21 27.25H25C25.414 27.25 25.75 27.586 25.75 28Z" fill="#056ECA"/>
</svg>
