<svg width="16" height="16" viewBox="0 0 16 16" fill="none" xmlns="http://www.w3.org/2000/svg">
<path d="M15.5009 8.00002C15.5041 9.19075 15.1178 10.3499 14.4009 11.3006C14.3614 11.3532 14.312 11.3974 14.2554 11.4308C14.1989 11.4643 14.1362 11.4862 14.0712 11.4954C14.0061 11.5047 13.9399 11.501 13.8763 11.4846C13.8126 11.4682 13.7528 11.4395 13.7003 11.4C13.6478 11.3605 13.6035 11.3111 13.5701 11.2545C13.5367 11.198 13.5147 11.1353 13.5055 11.0703C13.4963 11.0052 13.5 10.939 13.5163 10.8753C13.5327 10.8117 13.5614 10.7519 13.6009 10.6994C14.1877 9.92205 14.5038 8.97396 14.5009 8.00002C14.5009 6.80654 14.0268 5.66195 13.1829 4.81804C12.339 3.97412 11.1944 3.50002 10.0009 3.50002C8.80745 3.50002 7.66285 3.97412 6.81894 4.81804C5.97502 5.66195 5.50092 6.80654 5.50092 8.00002C5.50092 8.13263 5.44824 8.2598 5.35447 8.35357C5.2607 8.44734 5.13353 8.50002 5.00092 8.50002C4.86831 8.50002 4.74113 8.44734 4.64737 8.35357C4.5536 8.2598 4.50092 8.13263 4.50092 8.00002C4.50067 7.49544 4.56986 6.99323 4.70654 6.50752C4.63842 6.50002 4.56967 6.50002 4.50092 6.50002C3.70527 6.50002 2.94221 6.81609 2.3796 7.3787C1.81699 7.94131 1.50092 8.70437 1.50092 9.50002C1.50092 10.2957 1.81699 11.0587 2.3796 11.6213C2.94221 12.1839 3.70527 12.5 4.50092 12.5H6.00092C6.13353 12.5 6.2607 12.5527 6.35447 12.6465C6.44824 12.7402 6.50092 12.8674 6.50092 13C6.50092 13.1326 6.44824 13.2598 6.35447 13.3536C6.2607 13.4473 6.13353 13.5 6.00092 13.5H4.50092C3.95103 13.5001 3.40702 13.3869 2.90286 13.1673C2.39871 12.9478 1.94524 12.6266 1.57078 12.2239C1.19632 11.8212 0.908903 11.3457 0.726492 10.8269C0.544081 10.3082 0.470589 9.75736 0.510606 9.20893C0.550623 8.6605 0.703289 8.1262 0.95907 7.63942C1.21485 7.15264 1.56825 6.72383 1.9972 6.37976C2.42615 6.0357 2.92144 5.78377 3.45212 5.63971C3.98281 5.49566 4.5375 5.46257 5.08154 5.54252C5.63554 4.43449 6.54738 3.54594 7.66937 3.02079C8.79136 2.49564 10.0578 2.36464 11.2635 2.64902C12.4692 2.9334 13.5436 3.6165 14.3127 4.58767C15.0818 5.55885 15.5004 6.76121 15.5009 8.00002ZM9.85467 7.64627C9.80823 7.59978 9.75309 7.5629 9.69239 7.53774C9.63169 7.51258 9.56663 7.49962 9.50092 7.49962C9.43521 7.49962 9.37015 7.51258 9.30945 7.53774C9.24875 7.5629 9.19361 7.59978 9.14717 7.64627L7.14717 9.64627C7.10071 9.69272 7.06386 9.74787 7.03872 9.80857C7.01358 9.86927 7.00064 9.93432 7.00064 10C7.00064 10.0657 7.01358 10.1308 7.03872 10.1915C7.06386 10.2522 7.10071 10.3073 7.14717 10.3538C7.24099 10.4476 7.36824 10.5003 7.50092 10.5003C7.56662 10.5003 7.63167 10.4874 7.69237 10.4622C7.75306 10.4371 7.80821 10.4002 7.85467 10.3538L9.00092 9.20689V13C9.00092 13.1326 9.0536 13.2598 9.14737 13.3536C9.24113 13.4473 9.36831 13.5 9.50092 13.5C9.63353 13.5 9.7607 13.4473 9.85447 13.3536C9.94824 13.2598 10.0009 13.1326 10.0009 13V9.20689L11.1472 10.3538C11.1936 10.4002 11.2488 10.4371 11.3095 10.4622C11.3702 10.4874 11.4352 10.5003 11.5009 10.5003C11.5666 10.5003 11.6317 10.4874 11.6924 10.4622C11.7531 10.4371 11.8082 10.4002 11.8547 10.3538C11.9011 10.3073 11.938 10.2522 11.9631 10.1915C11.9883 10.1308 12.0012 10.0657 12.0012 10C12.0012 9.93432 11.9883 9.86927 11.9631 9.80857C11.938 9.74787 11.9011 9.69272 11.8547 9.64627L9.85467 7.64627Z" fill="#565656"/>
</svg>
