<svg width="24" height="24" viewBox="0 0 24 24" fill="none" xmlns="http://www.w3.org/2000/svg">
<path d="M21.6566 2.63901C21.5246 2.39901 21.2727 2.25 20.9997 2.25H15.9997C15.7427 2.25 15.5046 2.38099 15.3666 2.59799L12.3966 7.26999C12.2646 7.26299 12.1337 7.25 11.9997 7.25C11.8657 7.25 11.7347 7.26299 11.6027 7.26999L8.63271 2.59799C8.49471 2.38099 8.25666 2.25 7.99966 2.25H2.99966C2.72666 2.25 2.47467 2.39901 2.34267 2.63901C2.21067 2.87901 2.2206 3.17101 2.3666 3.40201L6.45571 9.83801C5.39271 11.1 4.74966 12.725 4.74966 14.5C4.74966 18.498 8.00166 21.75 11.9997 21.75C15.9977 21.75 19.2497 18.498 19.2497 14.5C19.2497 12.725 18.6066 11.1 17.5436 9.83801L21.6327 3.40201C21.7787 3.17101 21.7886 2.87901 21.6566 2.63901ZM7.58767 3.75L9.99563 7.53799C9.10063 7.79599 8.27769 8.22201 7.56069 8.78101L4.36562 3.75H7.58767ZM11.9997 20.25C8.82866 20.25 6.24966 17.671 6.24966 14.5C6.24966 11.329 8.82866 8.75 11.9997 8.75C15.1707 8.75 17.7497 11.329 17.7497 14.5C17.7497 17.671 15.1707 20.25 11.9997 20.25ZM16.4386 8.78101C15.7216 8.22301 14.8987 7.79599 14.0037 7.53799L16.4116 3.75H19.6347L16.4386 8.78101ZM14.8207 12.827L13.5426 12.642L12.9927 11.533C12.8047 11.153 12.4247 10.917 11.9997 10.917C11.5747 10.917 11.1947 11.153 11.0077 11.532L10.4567 12.642L9.17861 12.827C8.76761 12.886 8.43161 13.169 8.30361 13.565C8.17461 13.96 8.28064 14.386 8.57864 14.676L9.50161 15.571L9.29165 16.786C9.21965 17.204 9.38664 17.619 9.72964 17.869C10.0726 18.119 10.5186 18.154 10.8976 17.956L12.0006 17.379L13.1037 17.956C13.2667 18.041 13.4437 18.084 13.6197 18.084C13.8487 18.084 14.0767 18.012 14.2707 17.87C14.6147 17.62 14.7816 17.205 14.7086 16.789L14.4987 15.571L15.4217 14.675C15.7207 14.385 15.8257 13.96 15.6967 13.564C15.5677 13.169 15.2317 12.886 14.8207 12.827ZM11.6476 12.198C11.6476 12.198 11.6476 12.199 11.6476 12.198V12.198ZM13.2967 14.647C13.0387 14.896 12.9217 15.255 12.9827 15.608L13.0946 16.258L12.5027 15.948C12.1887 15.784 11.8116 15.784 11.4966 15.948L10.9047 16.258L11.0166 15.607C11.0776 15.255 10.9596 14.895 10.7036 14.647L10.2317 14.19L10.8856 14.095C11.2386 14.045 11.5437 13.824 11.7027 13.504L11.9987 12.907L12.2947 13.504C12.4537 13.823 12.7596 14.044 13.1106 14.094L13.7656 14.189L13.2967 14.647Z" fill="#056ECA"/>
</svg>
