<svg width="154" height="155" viewBox="0 0 154 155" fill="none" xmlns="http://www.w3.org/2000/svg">
<path d="M62.1985 83.9966L67.1474 74.2011V74.1216H61.4031V72.3602H69.3292V74.1614L64.386 83.9966H62.1985ZM70.0153 81.8375V80.1614L74.9528 72.3602H76.3505V74.7466H75.4982L72.1744 80.0136V80.1045H79.0664V81.8375H70.0153ZM75.5664 83.9966V81.3261L75.5891 80.5761V72.3602H77.5778V83.9966H75.5664ZM87.1033 81.8148V81.2011C87.1033 80.7504 87.198 80.3356 87.3874 79.9568C87.5806 79.578 87.8609 79.2731 88.2283 79.042C88.5958 78.811 89.0408 78.6954 89.5636 78.6954C90.1014 78.6954 90.5522 78.811 90.9158 79.042C91.2795 79.2693 91.5541 79.5723 91.7397 79.9511C91.9291 80.3299 92.0238 80.7466 92.0238 81.2011V81.8148C92.0238 82.2655 91.9291 82.6803 91.7397 83.0591C91.5503 83.4379 91.2719 83.7428 90.9045 83.9739C90.5408 84.2049 90.0939 84.3204 89.5636 84.3204C89.0333 84.3204 88.5844 84.2049 88.217 83.9739C87.8496 83.7428 87.5711 83.4379 87.3817 83.0591C87.1961 82.6803 87.1033 82.2655 87.1033 81.8148ZM88.5863 81.2011V81.8148C88.5863 82.114 88.6583 82.3886 88.8022 82.6386C88.9461 82.8886 89.1999 83.0136 89.5636 83.0136C89.931 83.0136 90.1829 82.8905 90.3192 82.6443C90.4594 82.3943 90.5295 82.1178 90.5295 81.8148V81.2011C90.5295 80.8981 90.4632 80.6216 90.3306 80.3716C90.198 80.1178 89.9424 79.9909 89.5636 79.9909C89.2075 79.9909 88.9556 80.1178 88.8079 80.3716C88.6602 80.6216 88.5863 80.8981 88.5863 81.2011ZM81.1886 75.1557V74.542C81.1886 74.0875 81.2852 73.6708 81.4783 73.292C81.6715 72.9132 81.9518 72.6102 82.3192 72.3829C82.6867 72.1519 83.1317 72.0364 83.6545 72.0364C84.1886 72.0364 84.6374 72.1519 85.0011 72.3829C85.3685 72.6102 85.645 72.9132 85.8306 73.292C86.0162 73.6708 86.109 74.0875 86.109 74.542V75.1557C86.109 75.6102 86.0143 76.0269 85.8249 76.4057C85.6393 76.7807 85.3628 77.0818 84.9954 77.3091C84.628 77.5364 84.181 77.65 83.6545 77.65C83.1204 77.65 82.6696 77.5364 82.3022 77.3091C81.9386 77.0818 81.6621 76.7788 81.4727 76.4C81.2833 76.0212 81.1886 75.6064 81.1886 75.1557ZM82.6829 74.542V75.1557C82.6829 75.4587 82.753 75.7352 82.8931 75.9852C83.0371 76.2314 83.2908 76.3545 83.6545 76.3545C84.0181 76.3545 84.2681 76.2314 84.4045 75.9852C84.5446 75.7352 84.6147 75.4587 84.6147 75.1557V74.542C84.6147 74.239 84.5484 73.9625 84.4158 73.7125C84.2833 73.4587 84.0295 73.3318 83.6545 73.3318C83.2946 73.3318 83.0427 73.4587 82.8988 73.7125C82.7549 73.9663 82.6829 74.2428 82.6829 74.542ZM81.8363 83.9966L89.8363 72.3602H91.2567L83.2567 83.9966H81.8363Z" fill="#282828"/>
<mask id="path-2-outside-1_502_3275" maskUnits="userSpaceOnUse" x="0" y="0.00634766" width="154" height="154" fill="black">
<rect fill="white" y="0.00634766" width="154" height="154"/>
<path d="M152 77.0062C152 118.427 118.421 152.006 77 152.006C35.5786 152.006 2 118.427 2 77.0062C2 35.5849 35.5786 2.00635 77 2.00635C118.421 2.00635 152 35.5849 152 77.0062ZM24.5 77.0062C24.5 106.001 48.005 129.506 77 129.506C105.995 129.506 129.5 106.001 129.5 77.0062C129.5 48.0113 105.995 24.5063 77 24.5063C48.005 24.5063 24.5 48.0113 24.5 77.0062Z"/>
</mask>
<path d="M152 77.0062C152 118.427 118.421 152.006 77 152.006C35.5786 152.006 2 118.427 2 77.0062C2 35.5849 35.5786 2.00635 77 2.00635C118.421 2.00635 152 35.5849 152 77.0062ZM24.5 77.0062C24.5 106.001 48.005 129.506 77 129.506C105.995 129.506 129.5 106.001 129.5 77.0062C129.5 48.0113 105.995 24.5063 77 24.5063C48.005 24.5063 24.5 48.0113 24.5 77.0062Z" fill="#25DCE0"/>
<path d="M152 77.0062C152 118.427 118.421 152.006 77 152.006C35.5786 152.006 2 118.427 2 77.0062C2 35.5849 35.5786 2.00635 77 2.00635C118.421 2.00635 152 35.5849 152 77.0062ZM24.5 77.0062C24.5 106.001 48.005 129.506 77 129.506C105.995 129.506 129.5 106.001 129.5 77.0062C129.5 48.0113 105.995 24.5063 77 24.5063C48.005 24.5063 24.5 48.0113 24.5 77.0062Z" stroke="white" stroke-width="4" stroke-linejoin="round" mask="url(#path-2-outside-1_502_3275)"/>
<mask id="path-3-outside-2_502_3275" maskUnits="userSpaceOnUse" x="-24.0942" y="-19.5021" width="120.501" height="160.224" fill="black">
<rect fill="white" x="-24.0942" y="-19.5021" width="120.501" height="160.224"/>
<path d="M29.7187 135.184C17.743 125.445 9.06413 112.248 4.8664 97.3931C0.668666 82.5388 1.15658 66.7509 6.26355 52.1841C11.3705 37.6172 20.8478 24.9809 33.4021 15.9996C45.9563 7.01824 60.9761 2.12934 76.4116 2.00003L76.6001 24.4992C65.7952 24.5897 55.2814 28.012 46.4934 34.2989C37.7054 40.5859 31.0713 49.4313 27.4964 59.628C23.9215 69.8248 23.58 80.8763 26.5184 91.2744C29.4568 101.672 35.532 110.911 43.9151 117.728L29.7187 135.184Z"/>
</mask>
<path d="M29.7187 135.184C17.743 125.445 9.06413 112.248 4.8664 97.3931C0.668666 82.5388 1.15658 66.7509 6.26355 52.1841C11.3705 37.6172 20.8478 24.9809 33.4021 15.9996C45.9563 7.01824 60.9761 2.12934 76.4116 2.00003L76.6001 24.4992C65.7952 24.5897 55.2814 28.012 46.4934 34.2989C37.7054 40.5859 31.0713 49.4313 27.4964 59.628C23.9215 69.8248 23.58 80.8763 26.5184 91.2744C29.4568 101.672 35.532 110.911 43.9151 117.728L29.7187 135.184Z" fill="#EDEDED"/>
<path d="M29.7187 135.184C17.743 125.445 9.06413 112.248 4.8664 97.3931C0.668666 82.5388 1.15658 66.7509 6.26355 52.1841C11.3705 37.6172 20.8478 24.9809 33.4021 15.9996C45.9563 7.01824 60.9761 2.12934 76.4116 2.00003L76.6001 24.4992C65.7952 24.5897 55.2814 28.012 46.4934 34.2989C37.7054 40.5859 31.0713 49.4313 27.4964 59.628C23.9215 69.8248 23.58 80.8763 26.5184 91.2744C29.4568 101.672 35.532 110.911 43.9151 117.728L29.7187 135.184Z" stroke="white" stroke-width="4" stroke-linejoin="round" mask="url(#path-3-outside-2_502_3275)"/>
</svg>
